<?xml version="1.0" encoding="utf-8"?>
<!-- Generator: Adobe Illustrator 16.0.0, SVG Export Plug-In . SVG Version: 6.00 Build 0)  -->
<!DOCTYPE svg PUBLIC "-//W3C//DTD SVG 1.1//EN" "http://www.w3.org/Graphics/SVG/1.1/DTD/svg11.dtd">
<svg version="1.1" id="Layer_1" xmlns="http://www.w3.org/2000/svg" xmlns:xlink="http://www.w3.org/1999/xlink" x="0px" y="0px"
	 width="300px" height="300px" viewBox="0 0 300 300" enable-background="new 0 0 300 300" xml:space="preserve">
<g>
	<path fill="#464646" d="M260.68,275.528c-19.075,0-34.581-15.515-34.581-34.589c0-19.071,15.506-34.583,34.581-34.583
		c19.076,0,34.59,15.512,34.59,34.583C295.27,260.014,279.756,275.528,260.68,275.528L260.68,275.528z M260.68,220.424
		c-11.31,0-20.513,9.2-20.513,20.516c0,11.313,9.203,20.518,20.513,20.518c11.316,0,20.517-9.204,20.517-20.518
		C281.196,229.624,271.996,220.424,260.68,220.424L260.68,220.424z"/>
	<path fill="#464646" d="M214.83,246.974c-3.329,0-6.036-2.701-6.036-6.042c0-28.605,23.276-51.875,51.881-51.875
		c13.863,0,26.889,5.398,36.69,15.193c2.353,2.364,2.353,6.171,0,8.53c-2.355,2.355-6.181,2.355-8.526,0
		c-7.524-7.526-17.522-11.66-28.164-11.66c-21.962,0-39.816,17.865-39.816,39.812C220.863,244.272,218.16,246.974,214.83,246.974
		L214.83,246.974z"/>
	<path fill="#464646" d="M118.011,62.14c-0.986-2.094-1.622-4.43-1.917-6.985c-0.854-7.474,1.104-14.215,5.866-20.21
		c4.766-5.997,10.889-9.419,18.371-10.275c6.383-0.735,12.216,0.582,17.498,3.951c5.284,3.377,9.08,7.887,11.399,13.53l-7.115,0.812
		c0.238,0.525,0.575,2.708,1.015,6.54c0.562,4.917-0.714,9.405-3.854,13.468c-3.143,4.056-7.274,6.373-12.377,6.954
		c-6.199,0.708-11.526-1.356-15.963-6.204c-0.881-1.194-1.541-2.134-1.984-2.829L118.011,62.14z"/>
	<path fill="#464646" d="M233.046,107.865c-10.834,0.495-19.422,7.532-19.422,16.158c0,8.636,8.588,15.666,19.422,16.169V107.865z"
		/>
	<path fill="#464646" d="M230.664,172.843c-1.08-3.605-15.602-34.785-20.025-44.255c-0.985-2.125-3.117-3.485-5.465-3.485h-10.58
		c2.137-1.532,3.549-4.025,3.549-6.858c-0.007-4.667-3.788-8.442-8.441-8.442h-0.01l-30.07,0.016L149.223,81.19
		c-0.242-0.663-0.575-1.254-0.942-1.814c-0.928-1.88-2.275-3.491-4.227-4.551c-4.423-2.418-11.036-3.125-15.283-1.911
		c-4.222,1.203-9.806,3.619-12.219,11.614l-13.251,56.209c-0.508,2.352-0.28,5.933,0.726,8.694
		c1.614,4.427,6.637,10.057,12.686,10.864l35.895,3.21c-1.349-0.018-3.15-0.026-5.406,0.009H95.182l-42.724,0.375
		c-2.841,0.93-4.953,3.63-4.857,6.573c0.096,3.106,4.194,9.508,7.295,13.913c-22.408,13.017-40.768,49.326-40.768,49.326
		s-0.491,1.114-0.452,2.411c0.103,3.333,2.699,6.04,6.031,6.04h12.187c0.637,18.503,15.856,33.375,34.522,33.375
		c18.665,0,33.885-14.872,34.529-33.379h79.098c0.547,0,13.501-0.146,21.835-12.631c1.979-2.687,27.185-37.088,28.862-43.822
		C232.207,179.848,232.188,177.928,230.664,172.843z M66.416,261.457c-10.902,0-19.824-8.558-20.457-19.308H86.87
		C86.239,252.899,77.318,261.457,66.416,261.457z M111.839,225.301c-0.54,1.46-1.923,2.366-3.394,2.366
		c-0.42,0-0.846-0.075-1.261-0.222c-1.874-0.697-2.83-2.783-2.13-4.66c0.04-0.127,5.061-14.275-2.807-25.64
		c-4.925-7.113-19.548-7.107-24.763-6.513c-1.985,0.227-3.786-1.184-4.014-3.176c-0.228-1.986,1.194-3.78,3.182-4.009
		c0.942-0.11,23.166-2.529,31.547,9.577C118.251,207.54,112.107,224.583,111.839,225.301z M219.093,182.554
		c-1.512,4.121-18.645,28.543-27.021,39.933c-0.065,0.079-0.116,0.167-0.177,0.248c-4.667,7.067-11.646,7.341-11.86,7.347h-28.696
		c-8.706-6.327-18.333-16.844-16.553-31.77c2.01-16.9,22.279-26.267,23.334-30.977c0.479-2.181-0.63-3.083-1.599-3.478l19.646,1.756
		l-16.037,47.579c-1.612,6.425,3.42,11.658,6.427,12.661c5.386,1.795,14.082,1.007,17.293-12.661
		c0.686-2.907,17.099-53.096,17.099-53.096c2.417-7.842-4.219-16.693-13.259-17.995l-46.537-7.661l1.156-5.401
		c-0.129-0.17-13.186-26.46-13.186-26.46c-0.881-1.795-0.146-3.967,1.646-4.851c1.79-0.89,3.964-0.153,4.843,1.637l12.183,24.593
		c0.979,1.884,3.768,2.758,5.896,2.758l29.323-0.015c-1.21,1.099-1.974,2.673-1.974,4.439c0,3.326,2.701,6.034,6.034,6.034h14.259
		c8.324,17.867,16.996,36.81,17.768,39.138C219.943,179.111,219.943,179.111,219.093,182.554z"/>
	<rect x="1" y="92" fill="#CBB488" width="97" height="16"/>
	<rect x="1" y="114" fill="#CBB488" width="97" height="44"/>
</g>
</svg>
