<svg xmlns="http://www.w3.org/2000/svg" xmlns:xlink="http://www.w3.org/1999/xlink" version="1.1" width="300" height="300" enable-background="new 0 0 300 300" xml:space="preserve"><rect id="backgroundrect" width="100%" height="100%" x="0" y="0" fill="none" stroke="none"/>

<g class="currentLayer"><title>Layer 1</title><g id="svg_1" class="selected" fill="#dadada" fill-opacity="1">
	<path fill="#dadada" d="M259.92812030792237,275.528 c-19.075,0 -34.581,-15.515 -34.581,-34.589 c0,-19.071 15.506,-34.583 34.581,-34.583 c19.076,0 34.59,15.512 34.59,34.583 C294.51812030792235,260.014 279.00412030792234,275.528 259.92812030792237,275.528 L259.92812030792237,275.528 zM259.92812030792237,220.424 c-11.31,0 -20.513,9.2 -20.513,20.516 c0,11.313 9.203,20.518 20.513,20.518 c11.316,0 20.517,-9.204 20.517,-20.518 C280.4441203079224,229.624 271.24412030792234,220.424 259.92812030792237,220.424 L259.92812030792237,220.424 z" id="svg_2" fill-opacity="1"/>
	<path fill="#dadada" d="M214.07812030792238,246.974 c-3.329,0 -6.036,-2.701 -6.036,-6.042 c0,-28.605 23.276,-51.875 51.881,-51.875 c13.863,0 26.889,5.398 36.69,15.193 c2.353,2.364 2.353,6.171 0,8.53 c-2.355,2.355 -6.181,2.355 -8.526,0 c-7.524,-7.526 -17.522,-11.66 -28.164,-11.66 c-21.962,0 -39.816,17.865 -39.816,39.812 C220.11112030792236,244.272 217.40812030792236,246.974 214.07812030792238,246.974 L214.07812030792238,246.974 z" id="svg_3" fill-opacity="1"/>
	<path fill="#dadada" d="M117.25912030792236,62.14 c-0.986,-2.094 -1.622,-4.43 -1.917,-6.985 c-0.8540000000000006,-7.474 1.104,-14.215 5.866,-20.21 c4.766,-5.997 10.889,-9.419 18.371,-10.275 c6.383,-0.7350000000000007 12.216,0.5820000000000006 17.498,3.951 c5.284,3.3770000000000002 9.08,7.8870000000000005 11.399000000000001,13.53 l-7.115,0.812 c0.23800000000000004,0.525 0.5750000000000006,2.708 1.015,6.54 c0.562,4.917 -0.7140000000000006,9.405 -3.854,13.468 c-3.143,4.056 -7.274,6.373 -12.377,6.954 c-6.199,0.7080000000000006 -11.526,-1.356 -15.963000000000001,-6.204 c-0.8810000000000007,-1.194 -1.541,-2.134 -1.984,-2.829 L117.25912030792236,62.14 z" id="svg_4" fill-opacity="1"/>
	<path fill="#dadada" d="M232.29412030792236,107.865 c-10.834,0.49500000000000033 -19.422,7.532 -19.422,16.158 c0,8.636 8.588000000000001,15.666 19.422,16.169 V107.865 z" id="svg_5" fill-opacity="1"/>
	<path fill="#dadada" d="M229.91212030792235,172.843 c-1.08,-3.605 -15.602,-34.785 -20.025,-44.255 c-0.985,-2.125 -3.117,-3.485 -5.465,-3.485 h-10.58 c2.137,-1.532 3.549,-4.025 3.549,-6.8580000000000005 c-0.007000000000000012,-4.667 -3.7880000000000003,-8.442 -8.441,-8.442 h-0.01000000000000001 l-30.07,0.01600000000000002 L148.47112030792238,81.19 c-0.24200000000000016,-0.6630000000000009 -0.5750000000000006,-1.254 -0.9420000000000006,-1.814 c-0.928,-1.8800000000000003 -2.275,-3.491 -4.227,-4.551 c-4.423,-2.418 -11.036,-3.125 -15.283,-1.911 c-4.222,1.203 -9.806000000000001,3.619 -12.219,11.614 l-13.251,56.209 c-0.508,2.352 -0.28,5.933 0.7260000000000006,8.694 c1.614,4.427 6.6370000000000005,10.057 12.686,10.864 l35.895,3.21 c-1.3490000000000002,-0.01800000000000002 -3.15,-0.02600000000000004 -5.406,0.009000000000000018 H94.43012030792237 l-42.724,0.37500000000000033 c-2.841,0.93 -4.953,3.63 -4.857,6.573 c0.09600000000000017,3.106 4.194,9.508 7.295,13.913 c-22.408,13.017 -40.768,49.326 -40.768,49.326 s-0.4910000000000003,1.114 -0.452,2.411 c0.10300000000000002,3.333 2.6990000000000007,6.04 6.031,6.04 h12.187 c0.6370000000000008,18.503 15.856,33.375 34.522,33.375 c18.665,0 33.885,-14.872 34.529,-33.379 h79.098 c0.547,0 13.501,-0.14600000000000016 21.835,-12.631 c1.979,-2.6870000000000003 27.185,-37.088 28.862000000000002,-43.822 C231.45512030792236,179.848 231.43612030792235,177.928 229.91212030792235,172.843 zM65.66412030792236,261.457 c-10.902,0 -19.824,-8.558 -20.457,-19.308 H86.11812030792237 C85.48712030792237,252.899 76.56612030792236,261.457 65.66412030792236,261.457 zM111.08712030792236,225.301 c-0.54,1.46 -1.923,2.366 -3.394,2.366 c-0.4200000000000003,0 -0.8460000000000006,-0.07500000000000002 -1.2610000000000001,-0.22200000000000022 c-1.874,-0.697000000000001 -2.83,-2.783 -2.13,-4.66 c0.04000000000000004,-0.127 5.061,-14.275 -2.807,-25.64 c-4.925,-7.113 -19.548000000000002,-7.107 -24.763,-6.513 c-1.9849999999999999,0.22700000000000023 -3.786,-1.184 -4.014,-3.176 c-0.22800000000000023,-1.986 1.194,-3.7800000000000002 3.182,-4.009 c0.9420000000000006,-0.11000000000000008 23.166,-2.529 31.547,9.577 C117.49912030792237,207.54 111.35512030792236,224.583 111.08712030792236,225.301 zM218.34112030792235,182.554 c-1.512,4.121 -18.645,28.543 -27.021,39.933 c-0.06500000000000009,0.07900000000000008 -0.11600000000000012,0.16700000000000026 -0.17700000000000016,0.24800000000000016 c-4.667,7.067 -11.646,7.341 -11.86,7.347 h-28.696 c-8.706,-6.327 -18.333,-16.844 -16.553,-31.77 c2.01,-16.9 22.279,-26.267 23.334,-30.977 c0.4790000000000003,-2.181 -0.6300000000000007,-3.083 -1.5990000000000002,-3.478 l19.646,1.7560000000000002 l-16.037,47.579 c-1.612,6.425 3.42,11.658 6.427,12.661 c5.386,1.795 14.082,1.007 17.293,-12.661 c0.6860000000000009,-2.907 17.099,-53.096 17.099,-53.096 c2.417,-7.8420000000000005 -4.219,-16.693 -13.259,-17.995 l-46.537,-7.6610000000000005 l1.1560000000000001,-5.401 c-0.129,-0.17 -13.186,-26.46 -13.186,-26.46 c-0.8810000000000007,-1.795 -0.14600000000000016,-3.967 1.6460000000000008,-4.851 c1.79,-0.8900000000000008 3.964,-0.15300000000000016 4.843,1.637 l12.183,24.593 c0.979,1.8840000000000003 3.7680000000000002,2.758 5.896,2.758 l29.323,-0.015000000000000019 c-1.21,1.099 -1.974,2.673 -1.974,4.439 c0,3.326 2.701,6.034 6.034,6.034 h14.259 c8.324,17.867 16.996,36.81 17.768,39.138 C219.19112030792238,179.111 219.19112030792238,179.111 218.34112030792235,182.554 z" id="svg_6" fill-opacity="1"/>
	<rect x="0.24812030792236328" y="92" fill="#dadada" width="97" height="16" id="svg_7" fill-opacity="1"/>
	<rect x="0.24812030792236328" y="114" fill="#dadada" width="97" height="44" id="svg_8" fill-opacity="1"/>
</g></g></svg>