<svg xmlns="http://www.w3.org/2000/svg" xmlns:xlink="http://www.w3.org/1999/xlink" version="1.0" enable-background="new 39.5 -0.5 169.756 250" xml:space="preserve" width="194.85039365348507" height="263.25196826742535"><rect id="backgroundrect" width="100%" height="100%" x="0" y="0" fill="none" stroke="none" class=""/><g class="currentLayer"><title>Layer 1</title><path fill="#dadada" d="M126.52674325561523,30.993016165733337 h41.031 L183.27174325561523,7.374016165733339 H29.229743255615233 L13.515743255615234,30.993016165733337 h26.739 c27.086,0 52.084,2.092 62.081,24.743 H29.229743255615233 L13.515743255615234,79.35601616573334 h91.769 c-0.0020000000000000165,0.05300000000000038 -0.0020000000000000165,0.10200000000000002 -0.0020000000000000165,0.15500000000000044 c0,16.974 -14.106,43.01 -60.685,43.01 l-22.537,-0.026000000000000204 l0.025000000000000164,22.068 L112.34474325561524,257.37401616573334 h40.195 l-93.42,-116.709 c38.456,-2.074 74.523,-23.563 79.722,-61.309 h28.716 l15.714,-23.62 h-44.84 C136.62174325561523,46.63501616573333 132.68974325561524,37.832016165733336 126.52674325561523,30.993016165733337 z" id="svg_1" class="selected" fill-opacity="1"/></g></svg>