<svg xmlns="http://www.w3.org/2000/svg" xmlns:xlink="http://www.w3.org/1999/xlink" version="1.1" xml:space="preserve" width="25" height="22"><rect id="backgroundrect" width="100%" height="100%" x="0" y="0" fill="none" stroke="none"/>

<g class="currentLayer"><title>Layer 1</title><g id="svg_1" class="selected" fill="#dadada" fill-opacity="1">
	<g id="svg_2" fill="#dadada" fill-opacity="1">
		<polygon points="21.8,15.6 7,15.6 3.8,3.3 0,3.3 0,0.4 6.1,0.4 9.2,12.6 19.5,12.6 22,3.1 25,3.1   " id="svg_3" fill="#dadada" fill-opacity="1"/>
	</g>
	<circle cx="18.600000381469727" cy="19.5" r="2.5" id="svg_4" fill="#dadada" fill-opacity="1"/>
	<circle cx="10.600000381469727" cy="19.5" r="2.5" id="svg_5" fill="#dadada" fill-opacity="1"/>
	<rect x="11.199999809265137" y="3.799999952316284" width="1" height="1" id="svg_6" fill="#dadada" fill-opacity="1"/>
	<rect x="14.199999809265137" y="3.799999952316284" width="1" height="1" id="svg_7" fill="#dadada" fill-opacity="1"/>
	<rect x="17.100000381469727" y="3.799999952316284" width="1" height="1" id="svg_8" fill="#dadada" fill-opacity="1"/>
	<rect x="11.199999809265137" y="9.699999809265137" width="1" height="1" id="svg_9" fill="#dadada" fill-opacity="1"/>
	<rect x="14.199999809265137" y="9.699999809265137" width="1" height="1" id="svg_10" fill="#dadada" fill-opacity="1"/>
	<rect x="17.100000381469727" y="9.699999809265137" width="1" height="1" id="svg_11" fill="#dadada" fill-opacity="1"/>
	<rect x="9.600000381469727" y="7" width="1" height="1" id="svg_12" fill="#dadada" fill-opacity="1"/>
	<rect x="12.5" y="7" width="1" height="1" id="svg_13" fill="#dadada" fill-opacity="1"/>
	<rect x="15.5" y="7" width="1" height="1" id="svg_14" fill="#dadada" fill-opacity="1"/>
	<rect x="18.399999618530273" y="7" width="1" height="1" id="svg_15" fill="#dadada" fill-opacity="1"/>
</g></g></svg>