<?xml version="1.0" encoding="utf-8"?>
<!-- Generator: Adobe Illustrator 19.2.1, SVG Export Plug-In . SVG Version: 6.00 Build 0)  -->
<svg version="1.1" id="Layer_1" xmlns="http://www.w3.org/2000/svg" xmlns:xlink="http://www.w3.org/1999/xlink" x="0px" y="0px"
	 viewBox="0 0 25 22" style="enable-background:new 0 0 25 22;" xml:space="preserve">
<g>
	<g>
		<polygon points="21.8,15.6 7,15.6 3.8,3.3 0,3.3 0,0.4 6.1,0.4 9.2,12.6 19.5,12.6 22,3.1 25,3.1 		"/>
	</g>
	<circle cx="18.6" cy="19.5" r="2.5"/>
	<circle cx="10.6" cy="19.5" r="2.5"/>
	<rect x="11.2" y="3.8" width="1" height="1"/>
	<rect x="14.2" y="3.8" width="1" height="1"/>
	<rect x="17.1" y="3.8" width="1" height="1"/>
	<rect x="11.2" y="9.7" width="1" height="1"/>
	<rect x="14.2" y="9.7" width="1" height="1"/>
	<rect x="17.1" y="9.7" width="1" height="1"/>
	<rect x="9.6" y="7" width="1" height="1"/>
	<rect x="12.5" y="7" width="1" height="1"/>
	<rect x="15.5" y="7" width="1" height="1"/>
	<rect x="18.4" y="7" width="1" height="1"/>
</g>
</svg>
