<svg xmlns="http://www.w3.org/2000/svg" xmlns:xlink="http://www.w3.org/1999/xlink" version="1.1" enable-background="new 0 0 1000 1000" xml:space="preserve" width="1000" height="1000"><rect id="backgroundrect" width="100%" height="100%" x="0" y="0" fill="none" stroke="none"/>
<metadata> Svg Vector Icons : http://www.onlinewebfonts.com/icon </metadata>

<g class="currentLayer"><title>Layer 1</title><g id="svg_1" class="selected" fill="#dadada" fill-opacity="1"><path d="M940,474.3c-12.5,0-22.7,10.2-22.7,22.7v394.2c0,59.4-32.3,59.4-46.1,59.4H110.6c-49.8,0-55.2-41.6-55.2-59.4v-747c0-24.3,2.7-32.8,55.2-32.8h421.1c12.5,0,22.7-10.2,22.7-22.7S544.2,66,531.7,66H110.6C75.4,66,10,66,10,144.1v747C10,953.9,50.4,996,110.6,996h760.6c58.1,0,91.4-38.2,91.4-104.8V497C962.6,484.4,952.5,474.3,940,474.3z" id="svg_2" fill="#dadada" fill-opacity="1"/><path d="M983.5,10.8c-8.8-8.9-23.1-9.1-32.1-0.3l-513,503.8c-8.9,8.8-9.1,23.1-0.3,32.1c4.4,4.5,10.3,6.8,16.2,6.8c5.7,0,11.5-2.2,15.9-6.5l513-503.8C992.1,34.1,992.3,19.8,983.5,10.8z" id="svg_3" fill="#dadada" fill-opacity="1"/></g></g></svg>